<svg width="130" height="65" viewBox="0 0 130 65" fill="none" xmlns="http://www.w3.org/2000/svg">
<path d="M105.91 30.653L81.9956 64.253H38.3516L65.4236 26.227L84.0886 -0.000976562L97.2706 18.526C97.2806 18.547 97.3026 18.569 97.3126 18.59L98.5276 20.29L105.91 30.653Z" fill="url(#paint0_linear)"/>
<path d="M129.823 64.253H89.7803C89.7811 64.2446 89.785 64.2367 89.7913 64.231H89.8013L109.775 36.145H109.786C109.792 36.1394 109.796 36.132 109.796 36.124L129.823 64.253Z" fill="url(#paint1_linear)"/>
<path d="M65.422 26.228L38.351 64.253H1.00098L46.751 0L53.079 8.894C53.089 8.905 53.1 8.905 53.1 8.915C53.1 8.925 53.11 8.926 53.11 8.926L64.271 24.611L65.422 26.228Z" fill="url(#paint2_linear)"/>
<g style="mix-blend-mode:multiply" opacity="0.2">
<g style="mix-blend-mode:multiply" opacity="0.2">
<path d="M65.4218 26.2281L38.3508 64.2531H27.8818L61.1018 20.1611L65.4218 26.2281Z" fill="black"/>
</g>
</g>
<g style="mix-blend-mode:screen" opacity="0.3">
<g style="mix-blend-mode:screen" opacity="0.3">
<path d="M90.2238 15.9081L58.8238 60.0281H46.5508L84.0908 7.28809L90.2238 15.9081Z" fill="white"/>
</g>
</g>
<g style="mix-blend-mode:screen" opacity="0.3">
<g style="mix-blend-mode:screen" opacity="0.3">
<path d="M114.138 49.5081L106.659 60.0291H97.9658L109.796 43.4141L114.138 49.5081Z" fill="white"/>
</g>
</g>
<g style="mix-blend-mode:screen" opacity="0.3">
<g style="mix-blend-mode:screen" opacity="0.3">
<path d="M52.0603 14.7531L19.8443 60.0281H9.19727L46.7513 7.28906L52.0603 14.7531Z" fill="white"/>
</g>
</g>
<g style="mix-blend-mode:multiply" opacity="0.25">
<g style="mix-blend-mode:multiply" opacity="0.25">
<path d="M105.909 30.6531L81.9948 64.2531H45.4688C48.5108 64.0621 51.5687 63.9671 54.6057 63.8301C57.6427 63.6931 60.6898 63.6301 63.7318 63.5241L72.8578 63.3441L81.4578 63.2381L87.1187 55.2381L93.1397 46.8731C95.1787 44.1051 97.1847 41.3171 99.2397 38.5731C101.215 35.9124 103.204 33.2648 105.208 30.6301C104.099 28.9611 103.008 27.2711 101.908 25.5921C100.735 23.7861 99.5628 21.9921 98.4218 20.1631C98.4586 20.2022 98.4921 20.2443 98.5218 20.2891L105.909 30.6531Z" fill="black"/>
</g>
</g>
<g style="mix-blend-mode:multiply" opacity="0.25">
<g style="mix-blend-mode:multiply" opacity="0.25">
<path d="M129.823 64.2531H89.7803C91.4493 64.1261 93.1183 64.0311 94.7873 63.9531L99.7933 63.6991C103.121 63.5731 106.455 63.4711 109.793 63.3931C113.131 63.3191 116.469 63.2561 119.807 63.2341C122.479 63.2241 125.141 63.2031 127.813 63.2031C126.535 61.4071 125.271 59.5974 124.021 57.7741C122.385 55.4074 120.765 53.0308 119.162 50.6441L116.778 47.0531C115.986 45.8391 115.178 44.6531 114.412 43.4301C112.87 41.0011 111.286 38.5931 109.796 36.1211L129.823 64.2531Z" fill="black"/>
</g>
</g>
<g style="mix-blend-mode:multiply" opacity="0.25">
<g style="mix-blend-mode:multiply" opacity="0.25">
<path d="M65.422 26.2281L38.351 64.2531H1.00098C4.11698 64.0831 7.22296 63.9881 10.339 63.8721C13.455 63.7561 16.56 63.6611 19.676 63.5871L29.014 63.3971L37.833 63.2811C39.957 60.2171 42.122 57.1811 44.266 54.1441C46.505 50.9541 48.787 47.8061 51.047 44.6441C53.307 41.4821 55.611 38.3381 57.903 35.1901C60.089 32.1801 62.318 29.2011 64.5359 26.2011C62.6559 23.4131 60.755 20.6351 58.917 17.8151C56.973 14.8571 54.998 11.9211 53.107 8.92114L64.271 24.6111L65.422 26.2281Z" fill="black"/>
</g>
</g>
<g style="mix-blend-mode:screen" opacity="0.5">
<g style="mix-blend-mode:screen" opacity="0.5">
<path d="M97.2695 18.5269C94.9035 15.5699 92.6325 12.5599 90.3195 9.56991C89.1465 8.05991 88.0195 6.53891 86.8755 5.01791L84.1185 1.33091C82.4605 3.74991 80.8125 6.16891 79.1335 8.57691C77.2535 11.2709 75.3945 13.9769 73.4925 16.6579L67.7925 24.7069L62.0465 32.7129C58.1805 38.0259 54.3045 43.3389 50.3645 48.5999C48.3785 51.2189 46.4245 53.8599 44.4065 56.4579C42.3885 59.0559 40.4065 61.6869 38.3545 64.2579L65.4265 26.2319L84.0915 0.00390625L97.2695 18.5269Z" fill="white"/>
</g>
</g>
<g style="mix-blend-mode:screen" opacity="0.5">
<g style="mix-blend-mode:screen" opacity="0.5">
<path d="M89.7913 64.2319H89.8013L89.7803 64.2539C89.7811 64.2455 89.785 64.2376 89.7913 64.2319Z" fill="white"/>
</g>
</g>
<g style="mix-blend-mode:screen" opacity="0.5">
<g style="mix-blend-mode:screen" opacity="0.5">
<path d="M109.787 36.146C109.671 36.378 108.731 38.259 107.167 40.868C106.333 42.268 105.34 43.878 104.22 45.568C103.66 46.402 103.101 47.29 102.488 48.156C101.875 49.022 101.263 49.92 100.65 50.797C100.016 51.673 99.3817 52.55 98.7497 53.405C98.1367 54.261 97.4817 55.085 96.8697 55.888C95.6337 57.488 94.4507 58.972 93.4047 60.208C91.4507 62.542 89.9717 64.053 89.8047 64.232L109.779 36.146H109.787Z" fill="white"/>
</g>
</g>
<g style="mix-blend-mode:screen" opacity="0.5">
<g style="mix-blend-mode:screen" opacity="0.5">
<path d="M53.0752 8.894C50.9302 6.253 48.8752 3.549 46.7752 0.867001C45.0852 3.412 43.3952 5.967 41.6632 8.493C39.8252 11.2183 37.9662 13.9257 36.0862 16.615C34.2272 19.33 32.3252 22.015 30.4352 24.696C28.5452 27.377 26.6352 30.062 24.7102 32.724C20.8862 38.068 16.9989 43.3703 13.0482 48.631C11.0842 51.261 9.09822 53.892 7.09122 56.49C5.06322 59.078 3.06721 61.697 0.991211 64.254L46.7512 0L53.0752 8.894Z" fill="white"/>
</g>
</g>
<defs>
<linearGradient id="paint0_linear" x1="62.132" y1="32.7043" x2="87.1777" y2="50.5121" gradientUnits="userSpaceOnUse">
<stop stop-color="#F55233"/>
<stop offset="1" stop-color="#A53826"/>
</linearGradient>
<linearGradient id="paint1_linear" x1="100.992" y1="50.8917" x2="120.319" y2="74.428" gradientUnits="userSpaceOnUse">
<stop stop-color="#9A3D2D"/>
<stop offset="1" stop-color="#1E4450"/>
</linearGradient>
<linearGradient id="paint2_linear" x1="24.3214" y1="32.4478" x2="48.0534" y2="48.6329" gradientUnits="userSpaceOnUse">
<stop stop-color="#FCC400"/>
<stop offset="0.162" stop-color="#FBC000"/>
<stop offset="0.307" stop-color="#FBB500"/>
<stop offset="0.446" stop-color="#FBA300"/>
<stop offset="0.581" stop-color="#FA8900"/>
<stop offset="0.712" stop-color="#FA6800"/>
<stop offset="0.842" stop-color="#F93F00"/>
<stop offset="0.967" stop-color="#F81000"/>
<stop offset="1" stop-color="#F80300"/>
</linearGradient>
</defs>
</svg>
